<?xml version="1.0" encoding="UTF-8" standalone="no"?>
<svg
   xmlns:dc="http://purl.org/dc/elements/1.1/"
   xmlns:cc="http://creativecommons.org/ns#"
   xmlns:rdf="http://www.w3.org/1999/02/22-rdf-syntax-ns#"
   xmlns:svg="http://www.w3.org/2000/svg"
   xmlns="http://www.w3.org/2000/svg"
   xmlns:sodipodi="http://sodipodi.sourceforge.net/DTD/sodipodi-0.dtd"
   xmlns:inkscape="http://www.inkscape.org/namespaces/inkscape"
   viewBox="0 0 500 500.00001"
   version="1.1"
   id="svg357"
   sodipodi:docname="favicon.svg"
   width="500"
   height="500"
   inkscape:version="0.92.5 (2060ec1f9f, 2020-04-08)">
  <metadata
     id="metadata361">
    <rdf:RDF>
      <cc:Work
         rdf:about="">
        <dc:format>image/svg+xml</dc:format>
        <dc:type
           rdf:resource="http://purl.org/dc/dcmitype/StillImage" />
        <dc:title>schönherz airsoft team</dc:title>
      </cc:Work>
    </rdf:RDF>
  </metadata>
  <sodipodi:namedview
     pagecolor="#ffffff"
     bordercolor="#666666"
     borderopacity="1"
     objecttolerance="10"
     gridtolerance="10"
     guidetolerance="10"
     inkscape:pageopacity="0"
     inkscape:pageshadow="2"
     inkscape:window-width="1848"
     inkscape:window-height="1016"
     id="namedview359"
     showgrid="false"
     inkscape:zoom="1.7061531"
     inkscape:cx="381.95554"
     inkscape:cy="261.31067"
     inkscape:window-x="72"
     inkscape:window-y="27"
     inkscape:window-maximized="1"
     inkscape:current-layer="g897" />
  <defs
     id="defs279">
    <inkscape:perspective
       sodipodi:type="inkscape:persp3d"
       inkscape:vp_x="0 : 250 : 1"
       inkscape:vp_y="0 : 1000 : 0"
       inkscape:vp_z="500 : 250 : 1"
       inkscape:persp3d-origin="250 : 166.66667 : 1"
       id="perspective837" />
    <style
       id="style277">.cls-1{fill:#960404;}.cls-2{fill:#143b65;fill-rule:evenodd;}.cls-3{fill:#556b2f;}.cls-4{fill:#6e6b6b;}.cls-5{fill:#febd07;}.cls-6{fill:#fcfefe;}</style>
  </defs>
  <title
     id="title281">schönherz airsoft team</title>
  <g
     id="Réteg_2"
     data-name="Réteg 2"
     transform="translate(0,-194.60999)">
    <g
       id="Réteg_1"
       data-name="Réteg 1">
      <g
         id="g387"
         transform="matrix(2.5812617,0,0,2.5812617,-480.35544,-687.21274)">
        <polygon
           style="fill:#88aa00;fill-rule:evenodd"
           id="polygon287"
           points="372.1,198.47 340.59,199.94 339.26,296.82 357.74,297.02 372.76,297.02 372.76,284.09 "
           class="cls-2"
           transform="matrix(0.94376645,0,0,0.94376645,-52.65653,171.75437)" />
        <polygon
           style="fill:#88aa00;fill-rule:evenodd"
           id="polygon289"
           points="335.05,302.27 336.55,205.77 336.06,205.79 326.68,206.13 324.55,304.9 309.18,321.41 307.92,354.85 403.78,354.79 402.59,324.77 387.22,308.27 385.45,204.23 376.82,204.28 376.2,204.3 376.7,302.43 "
           class="cls-2"
           transform="matrix(0.94376645,0,0,0.94376645,-52.65653,171.75437)" />
      </g>
      <g
         id="g897"
         style="stroke:#dde9af">
        <path
           sodipodi:nodetypes="cssscccsccscccccscccccsccccccccccccscsccccccccccccccccscscccccsccscccccccsccccsssccccccccccc"
           inkscape:connector-curvature="0"
           class="cls-6"
           d="m 283.03109,351.33022 c -35.19969,-0.003 -66.9355,21.19796 -80.40741,53.71668 -13.47188,32.51866 -6.02646,69.9499 18.86218,94.84092 24.88864,24.89102 62.31918,32.34003 94.83912,18.87126 32.52001,-13.4688 53.72437,-45.20259 53.72437,-80.40228 -0.055,-48.0374 -38.98086,-86.96698 -87.01826,-87.02658 z m 2.10475,159.7276 c -0.11648,-1.91341 -0.14143,-5.15788 -0.14143,-10.91472 0,-12.47872 0.0499,-12.91963 0.98998,-13.16921 1.28425,-0.15901 1.28425,-2.0206 0,-2.17961 -0.94007,-0.24958 -0.98998,-0.6905 -0.98998,-8.06957 0,-7.37909 0.0499,-7.82833 0.98998,-8.06958 1.28431,-0.15897 1.28431,-2.02065 0,-2.17962 -0.94007,-0.24957 -0.98998,-0.69881 -0.98998,-8.02798 0.0784,-5.23073 0.008,-10.87458 0,-14.45867 v -3.41085 h 10.76497 c 4.31764,0 6.92153,0 8.5604,0.0915 l 2.0881,2.13802 v 0 l 51.23762,0.62394 8.57705,0.2163 v 1.66383 c 0,3.46908 -2.07979,13.56852 -3.95991,19.13403 -9.28629,28.53942 -33.22468,49.86462 -62.64317,55.80483 -2.72037,0.54075 -6.65532,1.13972 -8.71847,1.33939 l -3.67706,0.33276 -0.66553,-9.5587 v 0 z m 52.34405,-73.9489 h -1.80524 l -29.2834,0.35773 v 0 l -1.40594,1.44753 c -1.75533,0.10815 -4.55057,0.14143 -8.99299,0.14143 h -10.99791 v -11.70504 c 0,-5.49895 0,-8.51048 0.1747,-10.23255 l 1.37266,-1.28114 v 0 l 0.77368,-61.06254 3.81849,0.33276 c 12.32897,1.0399 26.49648,5.9898 37.38624,13.16921 21.57044,14.06404 35.45502,37.28481 37.63581,62.94266 0.24958,2.82019 0.391,5.19947 0.34108,5.24938 -0.0499,0.0499 -13.11928,0.34109 -29.01718,0.64057 z m -61.84452,-82.07668 4.2594,-0.2995 0.34941,8.12781 c 0,0.9983 0.0749,2.44583 0.1331,4.23445 l 0.61561,48.71691 v 0 l 1.85518,1.73039 c 0.12479,1.88013 0.16638,4.90829 0.16638,9.78331 v 11.73 h -11.03951 c -7.74512,0 -10.13271,-0.0582 -11.23085,-0.46588 l -1.41424,-1.40593 v 0 l -7.24598,-0.0915 c -2.37096,-0.0666 -5.49896,-0.13311 -9.67517,-0.2163 -9.10946,-0.14974 -22.52824,-0.29117 -29.8075,-0.29117 h -4.19285 l -9.04291,-0.10814 v -1.88014 c 0,-1.03988 0.34108,-4.40083 0.83191,-7.48723 3.65562,-27.44128 20.71048,-51.27131 45.50573,-63.58322 9.33528,-4.73771 19.49996,-7.62213 29.93229,-8.49385 z m -16.30552,87.35103 v 0 l 1.51408,-1.50577 c 1.3893,-0.24125 4.35091,-0.28285 10.81489,-0.28285 h 11.33899 v 3.26943 c -0.26747,6.49834 0.0142,9.16574 0.0166,14.67497 0,7.038 -0.0499,7.62865 -0.98998,8.21931 -0.94006,0.59066 -0.83191,2.07979 0.29949,2.07979 0.54074,0 0.69049,1.48913 0.69049,7.92815 0,6.43901 -0.14975,7.91982 -0.69049,7.91982 -0.83191,0 -1.23955,0.94007 -0.94007,1.88013 0.18644,0.35088 0.54327,0.57824 0.94007,0.59898 0.83191,0 0.98998,16.06427 0.53243,23.50159 l -1.8635,1.73869 v 0 l -0.64888,9.40896 -2.42919,-0.0416 c -5.36966,-0.29594 -10.69586,-1.13207 -15.8979,-2.49575 -33.06082,-8.56989 -57.59725,-36.36929 -61.99426,-70.23855 -0.32445,-2.68709 -0.6489,-5.23274 -0.6905,-5.92323 z"
           id="path353"
           style="fill:#dde9af;stroke-width:0.83191454;stroke:#dde9af"
           transform="matrix(2.5812617,0,0,2.5812617,-480.35544,-687.21274)" />
        <rect
           y="437.42596"
           x="198.04863"
           height="4.5244122"
           width="61.919815"
           id="rect820"
           style="fill:none;fill-opacity:1;stroke:#dde9af;stroke-width:6.31947422;stroke-miterlimit:4;stroke-dasharray:none;stroke-opacity:1"
           transform="matrix(2.5812617,0,0,2.5812617,-480.35544,-687.21274)" />
        <rect
           y="437.31641"
           x="306.87408"
           height="4.9487953"
           width="61.298851"
           id="rect820-3"
           style="fill:none;fill-opacity:1;stroke:#dde9af;stroke-width:6.57598734;stroke-miterlimit:4;stroke-dasharray:none;stroke-opacity:1"
           transform="matrix(2.5812617,0,0,2.5812617,-480.35544,-687.21274)" />
        <rect
           y="351.00479"
           x="281.3941"
           height="65.687286"
           width="5.4292512"
           id="rect853"
           style="fill:none;fill-opacity:1;stroke:#dde9af;stroke-width:6.41818762;stroke-miterlimit:4;stroke-dasharray:none;stroke-opacity:1"
           transform="matrix(2.5812617,0,0,2.5812617,-480.35544,-687.21274)" />
        <rect
           y="462.47284"
           x="281.2601"
           height="63.045204"
           width="5.5119467"
           id="rect853-6"
           style="fill:none;fill-opacity:1;stroke:#dde9af;stroke-width:6.33549166;stroke-miterlimit:4;stroke-dasharray:none;stroke-opacity:1"
           transform="matrix(2.5812617,0,0,2.5812617,-480.35544,-687.21274)" />
        <circle
           r="231.97588"
           cy="444.42963"
           cx="250.81149"
           id="path389"
           style="fill:none;fill-opacity:1;stroke:#dde9af;stroke-width:20.76890755;stroke-miterlimit:4;stroke-dasharray:none;stroke-opacity:1" />
        <circle
           r="54.138699"
           cy="446.68381"
           cx="252.61508"
           id="path389-7"
           style="fill:none;fill-opacity:1;stroke:#dde9af;stroke-width:14.447;stroke-miterlimit:4;stroke-dasharray:none;stroke-opacity:1" />
      </g>
    </g>
  </g>
</svg>
