<svg xmlns="http://www.w3.org/2000/svg" viewBox="0 0 200 200">
  <circle cx="100" cy="100" r="100" fill="#99dfff"/>
  <g>
    <g transform="translate(17.768 55.394)">
      <circle cx="21.322" cy="21.322" r="25.322" transform="translate(10.803 0.451)" fill="#3f3d56"/>
      <path d="M476.175,412.51h-104.6a2.141,2.141,0,0,1-.391-.031l49.472-85.686a3.463,3.463,0,0,1,6.029,0l33.2,57.5,1.59,2.751Z" transform="translate(-371.188 -325.034)" fill="#00b0ff"/>
      <path d="M533.713,412.268H443.245l17.53-25.464,1.261-1.835,22.844-33.184a4.622,4.622,0,0,1,6.866-.41,4.131,4.131,0,0,1,.329.41Z" transform="translate(-370.49 -324.791)" fill="#00b0ff"/>
    </g>
  </g>
</svg>
